<svg width="247" height="110" viewBox="0 0 247 110" fill="none" xmlns="http://www.w3.org/2000/svg">
<g id="undraw_hire_re_gn5j 1" clip-path="url(#clip0_487_412)">
<path id="Vector" d="M105.227 69.777H5.56738C4.22389 69.7755 2.93586 69.2411 1.98587 68.2911C1.03588 67.3411 0.501508 66.0531 0.5 64.7096V3.85898C0.501132 2.83588 0.908047 1.85502 1.63147 1.13157C2.3549 0.408118 3.33575 0.00116798 4.35884 0H106.378C107.417 0.00116943 108.412 0.41415 109.146 1.14833C109.88 1.88251 110.293 2.87794 110.295 3.91622V64.7096C110.293 66.0531 109.759 67.3411 108.809 68.2911C107.859 69.2411 106.571 69.7755 105.227 69.777Z" fill="white"/>
<path id="Vector_2" d="M105.227 69.777H5.56738C4.22389 69.7755 2.93586 69.2411 1.98587 68.2911C1.03588 67.3411 0.501508 66.0531 0.5 64.7096V3.85898C0.501132 2.83588 0.908047 1.85502 1.63147 1.13157C2.3549 0.408118 3.33575 0.00116798 4.35884 0H106.378C107.417 0.00116943 108.412 0.41415 109.146 1.14833C109.88 1.88251 110.293 2.87794 110.295 3.91622V64.7096C110.293 66.0531 109.759 67.3411 108.809 68.2911C107.859 69.2411 106.571 69.7755 105.227 69.777ZM4.35884 1.09565C3.62624 1.09651 2.92389 1.38792 2.40587 1.90597C1.88785 2.42401 1.59647 3.12637 1.59565 3.85898V64.7096C1.59685 65.7626 2.01568 66.7721 2.76026 67.5167C3.50485 68.2613 4.51438 68.6801 5.56738 68.6813H105.227C106.28 68.6801 107.29 68.2613 108.034 67.5167C108.779 66.7721 109.198 65.7626 109.199 64.7096V3.91622C109.198 3.16842 108.901 2.45148 108.372 1.9227C107.843 1.39392 107.126 1.09649 106.378 1.09565H4.35884Z" fill="#E6E6E6"/>
<path id="Vector_3" d="M45.9999 54.3705H16.138C15.4074 54.3694 14.702 54.1033 14.1527 53.6216C13.6034 53.1399 13.2475 52.4753 13.151 51.7511C13.1329 51.6207 13.1242 51.4891 13.125 51.3574V18.4195C13.1259 17.6207 13.4436 16.8548 14.0085 16.29C14.5733 15.7251 15.3392 15.4074 16.138 15.4065H45.9999C46.7988 15.4074 47.5646 15.7251 48.1295 16.29C48.6943 16.8548 49.0121 17.6207 49.013 18.4195V51.3574C49.0121 52.1563 48.6943 52.9221 48.1295 53.487C47.5646 54.0518 46.7988 54.3696 45.9999 54.3705ZM16.138 17.0499C15.7749 17.0504 15.4268 17.1948 15.1701 17.4515C14.9133 17.7083 14.7689 18.0564 14.7685 18.4195V51.3574C14.7679 51.4137 14.7714 51.47 14.7789 51.5258C14.8208 51.857 14.9819 52.1616 15.232 52.3826C15.4822 52.6037 15.8042 52.7261 16.138 52.727H45.9999C46.363 52.7266 46.7111 52.5822 46.9679 52.3254C47.2247 52.0687 47.3691 51.7205 47.3695 51.3574V18.4195C47.3691 18.0564 47.2247 17.7083 46.9679 17.4515C46.7111 17.1948 46.363 17.0504 45.9999 17.0499H16.138Z" fill="#E6E6E6"/>
<path id="Vector_4" d="M95.4782 43.6605H59.3218C58.7406 43.6605 58.1832 43.4296 57.7723 43.0187C57.3613 42.6077 57.1305 42.0504 57.1305 41.4692C57.1305 40.888 57.3613 40.3306 57.7723 39.9197C58.1832 39.5088 58.7406 39.2779 59.3218 39.2779H95.4782C96.0593 39.2779 96.6167 39.5088 97.0276 39.9197C97.4386 40.3306 97.6695 40.888 97.6695 41.4692C97.6695 42.0504 97.4386 42.6077 97.0276 43.0187C96.6167 43.4296 96.0593 43.6605 95.4782 43.6605Z" fill="#E6E6E6"/>
<path id="Vector_5" d="M79.0434 34.3475H59.3218C58.7406 34.3475 58.1832 34.1166 57.7723 33.7057C57.3613 33.2947 57.1305 32.7373 57.1305 32.1562C57.1305 31.575 57.3613 31.0176 57.7723 30.6067C58.1832 30.1957 58.7406 29.9649 59.3218 29.9649H79.0434C79.6246 29.9649 80.182 30.1957 80.5929 30.6067C81.0039 31.0176 81.2347 31.575 81.2347 32.1562C81.2347 32.7373 81.0039 33.2947 80.5929 33.7057C80.182 34.1166 79.6246 34.3475 79.0434 34.3475Z" fill="#E6E6E6"/>
<path id="Vector_6" d="M40.9151 33.9832C40.9151 38.8241 36.439 38.0919 30.9173 38.0919C25.3957 38.0919 20.9196 38.8241 20.9196 33.9832C20.9196 29.1423 23.106 20.5615 30.9173 20.5615C38.9978 20.5615 40.9151 29.1423 40.9151 33.9832Z" fill="#2F2E41"/>
<path id="Vector_7" d="M41.3195 42.1304C41.1267 41.5738 40.7422 41.1039 40.2348 40.8047C40.1369 40.7445 40.0343 40.6923 39.928 40.6485C39.483 40.4635 38.9938 40.4121 38.5201 40.5007C38.0464 40.5892 37.6087 40.8138 37.2606 41.1471C36.9126 41.4804 36.6691 41.9079 36.56 42.3773C36.451 42.8467 36.481 43.3377 36.6465 43.7903L40.6292 52.8431H45.8747L41.3195 42.1304Z" fill="#3F3D56"/>
<path id="Vector_8" d="M23.9397 42.6234C23.6249 42.4713 23.2815 42.3875 22.9321 42.3774C22.5826 42.3673 22.2349 42.4312 21.9119 42.5649C21.5888 42.6987 21.2977 42.8992 21.0576 43.1533C20.8175 43.4074 20.6338 43.7095 20.5186 44.0396L16.8099 52.7636C16.9998 52.8167 17.1961 52.8434 17.3933 52.8431H22.0471L25.1915 45.6995C25.4012 45.1228 25.3893 44.4888 25.158 43.9204C24.9267 43.352 24.4925 42.8898 23.9397 42.6234Z" fill="#3F3D56"/>
<path id="Vector_9" d="M30.8839 38.0838C34.5994 38.0838 37.6115 35.0718 37.6115 31.3562C37.6115 27.6407 34.5994 24.6287 30.8839 24.6287C27.1684 24.6287 24.1563 27.6407 24.1563 31.3562C24.1563 35.0718 27.1684 38.0838 30.8839 38.0838Z" fill="#FFB8B8"/>
<path id="Vector_10" d="M40.3525 40.9115C40.3143 40.8759 40.2759 40.8375 40.2348 40.8046C39.7659 40.3818 39.2108 40.0656 38.6079 39.8779C38.005 39.6902 37.3686 39.6354 36.7425 39.7172L24.3451 41.2867C23.2095 41.4272 22.1732 42.0046 21.4563 42.8965C20.7393 43.7883 20.398 44.9244 20.5049 46.0638C20.6747 47.9757 20.9487 50.3888 21.3869 52.8431H40.9717L41.692 44.4723C41.75 43.8163 41.6597 43.1557 41.4278 42.5393C41.196 41.923 40.8285 41.3666 40.3525 40.9115Z" fill="#3F3D56"/>
<path id="Vector_11" d="M23.1109 30.6962H25.7718L26.9456 27.4093L27.1804 30.6962H28.4522L29.1369 28.7789L29.2739 30.6962H38.7239C38.7239 28.8075 37.9735 26.996 36.638 25.6604C35.3024 24.3249 33.4909 23.5745 31.6021 23.5745H30.2326C28.3438 23.5745 26.5324 24.3249 25.1968 25.6604C23.8612 26.996 23.1109 28.8075 23.1109 30.6962Z" fill="#2F2E41"/>
<path id="Vector_12" d="M136.706 64.7096V3.91623C136.707 2.87795 137.12 1.88252 137.854 1.14834C138.588 0.414157 139.583 0.00117706 140.622 7.62939e-06H242.641C243.664 0.00117561 244.645 0.408126 245.369 1.13158C246.092 1.85503 246.499 2.83589 246.5 3.85899V64.7096C246.499 66.0531 245.964 67.3411 245.014 68.2911C244.064 69.2411 242.776 69.7755 241.433 69.777H141.773C140.429 69.7755 139.141 69.2411 138.191 68.2911C137.241 67.3411 136.707 66.0531 136.706 64.7096Z" fill="white"/>
<path id="Vector_13" d="M136.706 64.7096V3.91623C136.707 2.87795 137.12 1.88252 137.854 1.14834C138.588 0.414157 139.583 0.00117706 140.622 7.62939e-06H242.641C243.664 0.00117561 244.645 0.408126 245.369 1.13158C246.092 1.85503 246.499 2.83589 246.5 3.85899V64.7096C246.499 66.0531 245.964 67.3411 245.014 68.2911C244.064 69.2411 242.776 69.7755 241.433 69.777H141.773C140.429 69.7755 139.141 69.2411 138.191 68.2911C137.241 67.3411 136.707 66.0531 136.706 64.7096ZM140.622 1.09566C139.874 1.09649 139.157 1.39393 138.628 1.92271C138.099 2.45149 137.802 3.16843 137.801 3.91623V64.7096C137.802 65.7626 138.221 66.7721 138.966 67.5167C139.71 68.2613 140.72 68.6801 141.773 68.6813H241.433C242.486 68.6801 243.495 68.2613 244.24 67.5167C244.984 66.7721 245.403 65.7626 245.404 64.7096V3.85899C245.404 3.12638 245.112 2.42402 244.594 1.90597C244.076 1.38793 243.374 1.09651 242.641 1.09566H140.622Z" fill="#E6E6E6"/>
<path id="Vector_14" d="M197.987 51.3574V18.4195C197.988 17.6207 198.306 16.8548 198.87 16.29C199.435 15.7251 200.201 15.4074 201 15.4065H230.862C231.661 15.4074 232.427 15.7251 232.991 16.29C233.556 16.8548 233.874 17.6207 233.875 18.4195V51.3574C233.876 51.4891 233.867 51.6207 233.849 51.7511C233.752 52.4753 233.397 53.1399 232.847 53.6216C232.298 54.1033 231.593 54.3694 230.862 54.3705H201C200.201 54.3696 199.435 54.0518 198.87 53.487C198.306 52.9221 197.988 52.1563 197.987 51.3574ZM201 17.0499C200.637 17.0504 200.289 17.1948 200.032 17.4515C199.775 17.7083 199.631 18.0564 199.63 18.4195V51.3574C199.631 51.7205 199.775 52.0687 200.032 52.3254C200.289 52.5822 200.637 52.7266 201 52.727H230.862C231.196 52.7261 231.518 52.6037 231.768 52.3826C232.018 52.1616 232.179 51.857 232.221 51.5258C232.229 51.47 232.232 51.4137 232.232 51.3574V18.4195C232.231 18.0564 232.087 17.7083 231.83 17.4515C231.573 17.1948 231.225 17.0504 230.862 17.0499H201Z" fill="#E6E6E6"/>
<path id="Vector_15" d="M149.331 41.4692C149.331 40.8882 149.562 40.3312 149.973 39.9204C150.384 39.5096 150.941 39.2786 151.522 39.2779H187.678C188.259 39.2779 188.817 39.5088 189.228 39.9197C189.639 40.3306 189.87 40.888 189.87 41.4692C189.87 42.0504 189.639 42.6077 189.228 43.0187C188.817 43.4296 188.259 43.6605 187.678 43.6605H151.522C150.941 43.6598 150.384 43.4287 149.973 43.0179C149.562 42.6071 149.331 42.0501 149.331 41.4692Z" fill="#E6E6E6"/>
<path id="Vector_16" d="M149.331 32.1562C149.331 31.5752 149.562 31.0182 149.973 30.6074C150.384 30.1966 150.941 29.9655 151.522 29.9649H171.244C171.825 29.9649 172.382 30.1957 172.793 30.6067C173.204 31.0176 173.435 31.575 173.435 32.1562C173.435 32.7373 173.204 33.2947 172.793 33.7057C172.382 34.1166 171.825 34.3475 171.244 34.3475H151.522C150.941 34.3468 150.384 34.1157 149.973 33.7049C149.562 33.2941 149.331 32.7371 149.331 32.1562Z" fill="#E6E6E6"/>
<path id="Vector_17" d="M208.551 28.2063C210.472 31.9818 211.985 35.8759 216.221 35.8759C218.255 35.8759 220.206 35.0678 221.644 33.6295C223.082 32.1912 223.89 30.2404 223.89 28.2063C223.89 26.1723 223.082 24.2215 221.644 22.7832C220.206 21.3448 218.255 20.5368 216.221 20.5368C211.916 20.4829 204.977 21.179 208.551 28.2063Z" fill="#2F2E41"/>
<path id="Vector_18" d="M215.843 36.0253C219.559 36.0253 222.571 33.0132 222.571 29.2977C222.571 25.5822 219.559 22.5701 215.843 22.5701C212.128 22.5701 209.116 25.5822 209.116 29.2977C209.116 33.0132 212.128 36.0253 215.843 36.0253Z" fill="#A0616A"/>
<path id="Vector_19" d="M225.028 41.5607C224.594 41.0882 224.123 40.6521 223.618 40.2568C221.409 38.5261 218.641 37.6681 215.841 37.8464C215.729 37.8519 215.617 37.8601 215.504 37.8711C213.883 38.0007 212.307 38.4742 210.883 39.2601C209.458 40.046 208.218 41.1262 207.243 42.429C206.254 43.7516 205.558 45.2703 205.203 46.8835C204.847 48.4967 204.841 50.1671 205.183 51.7831C205.257 52.1255 205.323 52.4706 205.386 52.8157H227.688L227.945 51.0901C228.203 49.3846 228.074 47.6431 227.569 45.9939C227.065 44.3447 226.196 42.8297 225.028 41.5607Z" fill="#3F3D56"/>
<path id="Vector_20" d="M228.444 43.3603C228.287 42.4602 227.819 41.6437 227.121 41.0532C226.424 40.4626 225.542 40.1352 224.628 40.1281C224.593 40.1281 224.554 40.1308 224.519 40.1308C224.215 40.1378 223.912 40.1801 223.618 40.2568C223.123 40.3884 222.658 40.6164 222.252 40.9278C221.845 41.2393 221.504 41.6279 221.248 42.0715C220.992 42.5151 220.826 43.0049 220.76 43.5128C220.694 44.0207 220.728 44.5367 220.862 45.0311L222.968 52.8157H230.057L228.444 43.3603Z" fill="#3F3D56"/>
<path id="Vector_21" d="M212.845 41.3196C212.577 40.7949 212.194 40.3378 211.724 39.9829C211.392 39.7316 211.02 39.5373 210.623 39.4077C210.461 39.3523 210.296 39.3084 210.127 39.2762C209.211 39.1029 208.263 39.2627 207.455 39.7268C206.646 40.1909 206.03 40.9287 205.717 41.8072L201.861 52.8157H209.18L212.913 44.7189C213.162 44.1846 213.285 43.6005 213.273 43.0113C213.261 42.4221 213.115 41.8434 212.845 41.3196Z" fill="#3F3D56"/>
<path id="Vector_22" d="M208.704 25.4956C210.242 26.5552 212.066 27.1191 213.934 27.1117C213.267 27.5735 212.509 27.8854 211.711 28.026C214.194 28.5585 216.759 28.5729 219.248 28.0683C219.801 27.9796 220.334 27.7963 220.825 27.5265C221.07 27.3899 221.283 27.2033 221.451 26.9789C221.618 26.7545 221.737 26.4973 221.799 26.2241C221.964 25.2795 221.228 24.4213 220.463 23.8429C219.292 22.9709 217.942 22.3701 216.51 22.084C215.078 21.7979 213.601 21.8336 212.185 22.1886C211.26 22.4277 210.333 22.8315 209.733 23.5742C209.132 24.3169 208.954 25.4619 209.526 26.2267L208.704 25.4956Z" fill="#2F2E41"/>
<path id="Vector_23" d="M173.33 109.22H73.6701C72.3266 109.219 71.0386 108.684 70.0886 107.734C69.1386 106.784 68.6043 105.496 68.6028 104.153V43.3023C68.6039 42.2792 69.0108 41.2984 69.7342 40.5749C70.4577 39.8515 71.4385 39.4445 72.4616 39.4434H174.481C175.519 39.4445 176.515 39.8575 177.249 40.5917C177.983 41.3259 178.396 42.3213 178.397 43.3596V104.153C178.396 105.496 177.861 106.784 176.911 107.734C175.961 108.684 174.673 109.219 173.33 109.22Z" fill="white"/>
<path id="Vector_24" d="M173.33 109.22H73.6701C72.3266 109.219 71.0386 108.684 70.0886 107.734C69.1386 106.784 68.6043 105.496 68.6028 104.153V43.3023C68.6039 42.2792 69.0108 41.2984 69.7342 40.5749C70.4577 39.8515 71.4385 39.4445 72.4616 39.4434H174.481C175.519 39.4445 176.515 39.8575 177.249 40.5917C177.983 41.3259 178.396 42.3213 178.397 43.3596V104.153C178.396 105.496 177.861 106.784 176.911 107.734C175.961 108.684 174.673 109.219 173.33 109.22ZM72.4616 40.539C71.729 40.5399 71.0266 40.8313 70.5086 41.3493C69.9906 41.8674 69.6992 42.5697 69.6984 43.3023V104.153C69.6996 105.206 70.1184 106.215 70.863 106.96C71.6076 107.705 72.6171 108.123 73.6701 108.125H173.33C174.383 108.123 175.392 107.705 176.137 106.96C176.882 106.215 177.3 105.206 177.302 104.153V43.3596C177.301 42.6118 177.003 41.8948 176.475 41.3661C175.946 40.8373 175.229 40.5398 174.481 40.539H72.4616Z" fill="#3F3D56"/>
<path id="Vector_25" d="M114.103 93.8138H84.2408C83.5102 93.8128 82.8048 93.5467 82.2555 93.065C81.7062 92.5832 81.3503 91.9186 81.2538 91.1944C81.2357 91.064 81.227 90.9325 81.2278 90.8008V57.8629C81.2287 57.064 81.5464 56.2982 82.1113 55.7333C82.6761 55.1685 83.442 54.8507 84.2408 54.8498H114.103C114.902 54.8507 115.667 55.1685 116.232 55.7333C116.797 56.2982 117.115 57.064 117.116 57.8629V90.8008C117.115 91.5996 116.797 92.3655 116.232 92.9303C115.667 93.4952 114.902 93.8129 114.103 93.8138ZM84.2408 56.4933C83.8777 56.4937 83.5296 56.6381 83.2728 56.8949C83.0161 57.1516 82.8717 57.4998 82.8712 57.8629V90.8008C82.8707 90.8571 82.8741 90.9134 82.8817 90.9692C82.9236 91.3004 83.0847 91.6049 83.3348 91.826C83.5849 92.047 83.907 92.1695 84.2408 92.1704H114.103C114.466 92.1699 114.814 92.0255 115.071 91.7688C115.327 91.512 115.472 91.1639 115.472 90.8008V57.8629C115.472 57.4998 115.327 57.1516 115.071 56.8949C114.814 56.6381 114.466 56.4937 114.103 56.4933H84.2408Z" fill="#E6E6E6"/>
<path id="Vector_26" d="M98.7381 60.8715C96.7942 59.9671 94.4075 59.6707 92.4294 60.511C90.4514 61.3513 89.1029 63.5053 89.7425 65.4115C90.0325 66.2758 90.6929 67.1258 90.4356 67.9986C90.2376 68.6705 89.5467 69.1141 88.8681 69.4295C88.1896 69.7449 87.4474 70.01 86.9567 70.542C86.466 71.0739 86.3636 71.9897 86.9766 72.4022C87.1786 72.5381 87.431 72.6026 87.6268 72.7458C87.7937 72.8814 87.9142 73.0657 87.9713 73.273C88.0285 73.4803 88.0196 73.7003 87.9458 73.9023C87.7825 74.3087 87.5128 74.6636 87.1649 74.9297C86.469 75.5298 85.5493 76.2166 85.7654 77.0686C85.8456 77.2962 85.9795 77.5012 86.1558 77.6661C86.332 77.831 86.5455 77.9509 86.778 78.0157C87.261 78.155 87.762 78.2211 88.2645 78.2119L108.799 78.8588C109.477 78.9097 110.158 78.8716 110.826 78.7455C111.151 78.6863 111.46 78.5607 111.734 78.3767C112.008 78.1927 112.241 77.9541 112.418 77.6759C112.812 76.948 112.553 76.0514 112.068 75.3718C111.582 74.6921 110.895 74.156 110.327 73.5319C109.759 72.9078 109.294 72.1287 109.395 71.3221C109.475 70.6764 109.901 70.1184 110.206 69.5317C110.512 68.945 110.69 68.2118 110.294 67.6721C109.736 66.9115 108.396 66.9803 107.762 66.2716C107.283 65.7368 107.376 64.9669 107.328 64.2772C107.213 62.6182 106.065 61.0515 104.43 60.3239C103.599 59.967 102.694 59.8129 101.792 59.8744C100.889 59.9359 100.014 60.2112 99.2384 60.6775L98.7381 60.8715Z" fill="#2F2E41"/>
<path id="Vector_27" d="M99.4979 78.6997C103.213 78.6997 106.225 75.6876 106.225 71.9721C106.225 68.2566 103.213 65.2445 99.4979 65.2445C95.7824 65.2445 92.7704 68.2566 92.7704 71.9721C92.7704 75.6876 95.7824 78.6997 99.4979 78.6997Z" fill="#A0616A"/>
<path id="Vector_28" d="M108.331 87.3878C108.324 86.2086 107.997 85.0533 107.386 84.0452C106.774 83.037 105.9 82.2137 104.857 81.6631C104.773 81.6165 104.685 81.5754 104.597 81.5343C103.84 81.1755 103.021 80.9671 102.184 80.9207L95.78 80.5619C94.8755 80.5103 93.9703 80.6493 93.123 80.97C92.9167 81.0469 92.7146 81.1347 92.5176 81.233C91.8987 81.5379 91.3327 81.9402 90.8413 82.4245C90.1941 83.0635 89.6877 83.8307 89.3546 84.677C89.0216 85.5233 88.8693 86.4299 88.9074 87.3385L89.0226 90.053L89.8279 92.1429H107.733C107.955 91.8738 108.148 91.5818 108.309 91.2719C108.612 90.6702 108.772 90.0063 108.776 89.3324C108.78 88.6585 108.627 87.9929 108.331 87.3878Z" fill="#3F3D56"/>
<path id="Vector_29" d="M107.892 83.7886C107.6 83.1546 107.142 82.6114 106.567 82.2163C106.151 81.9318 105.685 81.7292 105.194 81.6192C104.998 81.576 104.798 81.5476 104.597 81.5343C104.202 81.5074 103.804 81.5416 103.419 81.6356C102.844 81.7787 102.309 82.0505 101.855 82.4306C101.4 82.8107 101.038 83.2891 100.796 83.8297C100.553 84.3703 100.437 84.959 100.455 85.5512C100.474 86.1433 100.626 86.7236 100.902 87.2481L103.365 91.9101L103.488 92.1429H111.757L107.892 83.7886Z" fill="#3F3D56"/>
<path id="Vector_30" d="M94.3582 81.359C93.9708 81.1619 93.5534 81.0305 93.123 80.9701C92.8026 80.9244 92.4777 80.9198 92.1561 80.9564C91.3378 81.049 90.5697 81.398 89.9616 81.9534C89.3536 82.5088 88.9366 83.2422 88.7705 84.0488L87.1024 92.1429H93.6269L94.8459 91.6444L96.3634 85.8211C96.5841 84.9602 96.5059 84.0498 96.1416 83.2392C95.7774 82.4285 95.1486 81.7656 94.3582 81.359Z" fill="#3F3D56"/>
<path id="Vector_31" d="M92.6154 71.0156C94.74 70.845 96.5039 68.7226 96.283 66.6027C96.2581 67.4765 96.5552 68.3289 97.1179 68.9979C97.6806 69.6669 98.4696 70.1057 99.3347 70.2308C100.309 70.3382 101.378 70.0434 102.226 70.535C103.165 71.0795 103.466 72.4019 104.445 72.8723C105.391 73.3267 106.592 72.7069 107.059 71.7675C107.526 70.828 107.411 69.6994 107.102 68.6969C106.66 67.2673 105.856 65.9763 104.768 64.9494C103.68 63.9226 102.344 63.1949 100.891 62.8371C99.4382 62.4793 97.9175 62.5036 96.4768 62.9077C95.0361 63.3117 93.7245 64.0818 92.6696 65.1429C91.7762 66.0414 91.0669 67.1867 90.9518 68.4485C90.8368 69.7104 91.4222 71.0795 92.5554 71.6464L92.6154 71.0156Z" fill="#2F2E41"/>
<path id="Vector_32" d="M163.581 83.1038H127.425C126.843 83.1038 126.286 82.873 125.875 82.462C125.464 82.0511 125.233 81.4937 125.233 80.9125C125.233 80.3314 125.464 79.774 125.875 79.3631C126.286 78.9521 126.843 78.7212 127.425 78.7212H163.581C164.162 78.7212 164.719 78.9521 165.13 79.3631C165.541 79.774 165.772 80.3314 165.772 80.9125C165.772 81.4937 165.541 82.0511 165.13 82.462C164.719 82.873 164.162 83.1038 163.581 83.1038Z" fill="#E6E6E6"/>
<path id="Vector_33" d="M147.146 73.7908H127.425C126.843 73.7908 126.286 73.56 125.875 73.149C125.464 72.7381 125.233 72.1807 125.233 71.5995C125.233 71.0184 125.464 70.461 125.875 70.05C126.286 69.6391 126.843 69.4082 127.425 69.4082H147.146C147.727 69.4082 148.285 69.6391 148.696 70.05C149.107 70.461 149.337 71.0184 149.337 71.5995C149.337 72.1807 149.107 72.7381 148.696 73.149C148.285 73.56 147.727 73.7908 147.146 73.7908Z" fill="#565656"/>
<path id="Vector_34" d="M157.728 89.7938C155.814 89.7974 153.98 90.5601 152.628 91.9148C151.276 93.2694 150.516 95.1051 150.516 97.0191C150.516 98.933 151.276 100.769 152.628 102.123C153.98 103.478 155.814 104.241 157.728 104.244C159.642 104.241 161.477 103.478 162.829 102.123C164.181 100.769 164.94 98.933 164.94 97.0191C164.94 95.1051 164.181 93.2694 162.829 91.9148C161.477 90.5602 159.642 89.7974 157.728 89.7938Z" fill="#565656"/>
<path id="Path 395" d="M157.043 100.02C156.852 100.02 156.667 99.9586 156.515 99.8444L156.506 99.8374L154.519 98.3174C154.333 98.1748 154.212 97.9644 154.181 97.7324C154.151 97.5005 154.214 97.2659 154.356 97.0802C154.499 96.8945 154.709 96.7729 154.941 96.7421C155.173 96.7113 155.407 96.7738 155.593 96.9159L156.88 97.9029L159.921 93.9353C159.992 93.8433 160.08 93.7661 160.18 93.7081C160.281 93.6501 160.391 93.6124 160.506 93.5972C160.621 93.5821 160.738 93.5897 160.85 93.6196C160.962 93.6496 161.067 93.7013 161.159 93.7718L161.159 93.772L161.14 93.7982L161.16 93.772C161.345 93.9146 161.467 94.125 161.497 94.3571C161.528 94.5891 161.465 94.8238 161.323 95.0097L157.746 99.6744C157.663 99.7819 157.557 99.8688 157.435 99.9286C157.313 99.9883 157.179 100.019 157.043 100.019L157.043 100.02Z" fill="white"/>
</g>
<defs>
<clipPath id="clip0_487_412">
<rect width="246" height="109.22" fill="white" transform="translate(0.5)"/>
</clipPath>
</defs>
</svg>
