<svg width="532" height="532" viewBox="0 0 532 532" fill="none" xmlns="http://www.w3.org/2000/svg">
<g clip-path="url(#clip0_487_80)">
<path d="M532 406.874H0V407.14H532V406.874Z" fill="#EBEBEB"/>
<path d="M184.306 413.662H159.643V413.928H184.306V413.662Z" fill="#EBEBEB"/>
<path d="M488.131 419.365H427.834V419.631H488.131V419.365Z" fill="#EBEBEB"/>
<path d="M105.751 419.365H45.4541V419.631H105.751V419.365Z" fill="#EBEBEB"/>
<path d="M252.168 359.419H46.7203C45.1109 359.416 43.5683 358.775 42.4312 357.636C41.2941 356.497 40.6555 354.953 40.6555 353.344V64.5423C40.6695 62.942 41.3143 61.4119 42.4499 60.2844C43.5854 59.1568 45.12 58.5228 46.7203 58.52H252.168C253.779 58.52 255.325 59.1601 256.464 60.2995C257.603 61.4388 258.244 62.9842 258.244 64.5955V353.344C258.244 354.955 257.603 356.5 256.464 357.64C255.325 358.779 253.779 359.419 252.168 359.419ZM46.7203 58.7328C45.1814 58.7356 43.7065 59.3489 42.6193 60.4381C41.5321 61.5273 40.9215 63.0033 40.9215 64.5423V353.344C40.9215 354.883 41.5321 356.359 42.6193 357.448C43.7065 358.537 45.1814 359.15 46.7203 359.153H252.168C253.707 359.148 255.182 358.534 256.27 357.445C257.358 356.357 257.972 354.883 257.978 353.344V64.5423C257.972 63.0032 257.358 61.5288 256.27 60.4406C255.182 59.3523 253.707 58.7384 252.168 58.7328H46.7203Z" fill="#EBEBEB"/>
<path d="M482.322 359.419H276.864C275.254 359.414 273.712 358.772 272.574 357.634C271.436 356.495 270.794 354.953 270.788 353.344V64.5423C270.805 62.9411 271.452 61.411 272.589 60.2837C273.727 59.1564 275.262 58.5227 276.864 58.52H482.322C483.92 58.5256 485.452 59.1608 486.585 60.2881C487.719 61.4154 488.362 62.9439 488.376 64.5423V353.344C488.377 354.14 488.222 354.929 487.919 355.665C487.615 356.402 487.169 357.071 486.607 357.635C486.045 358.2 485.377 358.647 484.642 358.953C483.907 359.26 483.118 359.418 482.322 359.419ZM276.864 58.7328C275.324 58.7384 273.85 59.3523 272.762 60.4406C271.674 61.5288 271.06 63.0032 271.054 64.5423V353.344C271.06 354.883 271.674 356.357 272.762 357.445C273.85 358.534 275.324 359.148 276.864 359.153H482.322C483.861 359.148 485.335 358.534 486.424 357.445C487.512 356.357 488.126 354.883 488.131 353.344V64.5423C488.126 63.0032 487.512 61.5288 486.424 60.4406C485.335 59.3523 483.861 58.7384 482.322 58.7328H276.864Z" fill="#EBEBEB"/>
<path d="M335.235 322.424H310.667V407.448H335.235V322.424Z" fill="#E6E6E6"/>
<path d="M317.838 322.424H293.27V407.448H317.838V322.424Z" fill="#E6E6E6"/>
<path d="M313.178 407.448H317.838V394.169H308.273L313.178 407.448Z" fill="#F0F0F0"/>
<path d="M194.34 322.424H169.772V407.448H194.34V322.424Z" fill="#E6E6E6"/>
<path d="M317.849 322.424H190.275V400.915H317.849V322.424Z" fill="#F0F0F0"/>
<path d="M309.901 383.253H259.893C258.605 383.247 257.371 382.733 256.46 381.822C255.55 380.912 255.036 379.678 255.03 378.39V330.606C255.033 329.318 255.546 328.084 256.458 327.175C257.37 326.265 258.605 325.754 259.893 325.754H309.847C311.135 325.754 312.37 326.265 313.282 327.175C314.193 328.084 314.707 329.318 314.71 330.606V378.39C314.704 379.669 314.198 380.895 313.298 381.804C312.399 382.713 311.179 383.233 309.901 383.253ZM259.893 326.861C258.892 326.861 257.931 327.257 257.222 327.963C256.512 328.668 256.11 329.626 256.105 330.627V378.412C256.099 378.909 256.191 379.403 256.377 379.864C256.562 380.326 256.836 380.747 257.184 381.103C257.532 381.458 257.946 381.742 258.404 381.937C258.861 382.133 259.353 382.236 259.85 382.242H309.858C310.861 382.248 311.825 381.856 312.539 381.151C313.253 380.447 313.659 379.489 313.667 378.486V330.606C313.667 330.111 313.569 329.62 313.379 329.162C313.189 328.705 312.911 328.289 312.56 327.939C312.209 327.589 311.793 327.312 311.335 327.123C310.876 326.935 310.385 326.838 309.89 326.84L259.893 326.861Z" fill="#E0E0E0"/>
<path d="M248.167 383.253H198.159C196.871 383.247 195.638 382.733 194.727 381.822C193.817 380.912 193.302 379.678 193.297 378.39V330.606C193.3 329.318 193.813 328.084 194.725 327.175C195.636 326.265 196.872 325.754 198.159 325.754H248.167C249.455 325.754 250.69 326.265 251.602 327.175C252.513 328.084 253.027 329.318 253.03 330.606V378.39C253.027 379.679 252.514 380.914 251.603 381.826C250.691 382.737 249.456 383.25 248.167 383.253ZM198.159 326.861C197.664 326.859 197.173 326.956 196.715 327.144C196.256 327.333 195.84 327.61 195.489 327.96C195.138 328.31 194.86 328.726 194.67 329.184C194.48 329.641 194.382 330.132 194.382 330.627V378.412C194.382 378.908 194.48 379.399 194.67 379.857C194.859 380.315 195.138 380.732 195.488 381.083C195.839 381.433 196.256 381.711 196.714 381.901C197.172 382.091 197.663 382.189 198.159 382.189H248.167C249.169 382.186 250.129 381.788 250.839 381.08C251.548 380.373 251.95 379.414 251.955 378.412V330.606C251.95 329.605 251.548 328.647 250.838 327.941C250.129 327.236 249.168 326.84 248.167 326.84L198.159 326.861Z" fill="#E0E0E0"/>
<path d="M243.528 340.853C242.601 340.852 241.694 340.578 240.922 340.062C240.151 339.547 239.55 338.815 239.194 337.958C238.839 337.102 238.745 336.159 238.925 335.249C239.106 334.339 239.551 333.503 240.207 332.846C240.862 332.189 241.697 331.742 242.606 331.559C243.516 331.377 244.459 331.469 245.316 331.822C246.174 332.176 246.908 332.775 247.424 333.546C247.941 334.316 248.218 335.222 248.22 336.15C248.22 337.395 247.726 338.59 246.847 339.471C245.967 340.353 244.774 340.85 243.528 340.853Z" fill="#FAFAFA"/>
<path d="M264.574 340.852C263.646 340.859 262.737 340.59 261.962 340.079C261.187 339.569 260.581 338.84 260.22 337.985C259.859 337.13 259.76 336.188 259.934 335.276C260.109 334.365 260.55 333.526 261.202 332.865C261.854 332.204 262.687 331.752 263.596 331.565C264.505 331.377 265.449 331.464 266.309 331.813C267.168 332.162 267.905 332.759 268.426 333.527C268.947 334.295 269.228 335.2 269.235 336.128V336.224C269.221 337.453 268.724 338.627 267.852 339.493C266.981 340.358 265.803 340.847 264.574 340.852Z" fill="#FAFAFA"/>
<path d="M194.936 407.448H190.265V394.169H199.83L194.936 407.448Z" fill="#F0F0F0"/>
<path d="M186.519 322.424H161.951V407.448H186.519V322.424Z" fill="#E6E6E6"/>
<path d="M181.848 407.448H186.519V394.169H176.954L181.848 407.448Z" fill="#F0F0F0"/>
<path d="M186.519 322.424H58.9456V400.915H186.519V322.424Z" fill="#F0F0F0"/>
<path d="M178.571 383.253H128.563C127.274 383.253 126.037 382.741 125.125 381.829C124.213 380.917 123.701 379.68 123.701 378.39V330.606C123.704 329.318 124.217 328.084 125.129 327.175C126.04 326.265 127.275 325.754 128.563 325.754H178.518C179.806 325.754 181.041 326.265 181.952 327.175C182.864 328.084 183.378 329.318 183.38 330.606V378.39C183.381 379.671 182.876 380.9 181.975 381.81C181.075 382.72 179.852 383.239 178.571 383.253ZM128.563 326.861C128.068 326.859 127.577 326.956 127.118 327.144C126.66 327.333 126.244 327.61 125.893 327.96C125.542 328.31 125.264 328.726 125.074 329.184C124.884 329.641 124.786 330.132 124.786 330.627V378.412C124.78 378.909 124.873 379.403 125.058 379.864C125.243 380.326 125.517 380.747 125.865 381.103C126.213 381.458 126.627 381.742 127.085 381.937C127.542 382.133 128.034 382.236 128.531 382.242H178.539C179.543 382.248 180.508 381.856 181.224 381.152C181.94 380.448 182.348 379.49 182.359 378.486V330.606C182.353 329.607 181.953 328.651 181.246 327.945C180.538 327.24 179.581 326.842 178.582 326.84L128.563 326.861Z" fill="#E0E0E0"/>
<path d="M116.838 383.253H66.8937C65.6041 383.253 64.3673 382.741 63.4554 381.829C62.5435 380.917 62.0313 379.68 62.0313 378.39V330.606C62.0312 329.968 62.1571 329.336 62.4016 328.747C62.6461 328.158 63.0044 327.622 63.4561 327.172C63.9077 326.721 64.4439 326.364 65.0337 326.121C65.6236 325.877 66.2557 325.753 66.8937 325.754H116.838C117.476 325.753 118.108 325.877 118.698 326.121C119.288 326.364 119.824 326.721 120.276 327.172C120.727 327.622 121.086 328.158 121.33 328.747C121.575 329.336 121.7 329.968 121.7 330.606V378.39C121.698 379.679 121.184 380.914 120.273 381.826C119.362 382.737 118.127 383.25 116.838 383.253ZM66.8937 326.861C66.3973 326.858 65.9052 326.953 65.4458 327.141C64.9864 327.329 64.5686 327.606 64.2166 327.956C63.8646 328.307 63.5852 328.723 63.3946 329.181C63.204 329.639 63.1059 330.131 63.1059 330.627V378.412C63.1003 378.909 63.1927 379.403 63.3779 379.864C63.5631 380.326 63.8374 380.747 64.1852 381.103C64.5329 381.458 64.9474 381.742 65.4048 381.938C65.8623 382.133 66.3537 382.236 66.8512 382.242H116.859C117.356 382.243 117.848 382.147 118.308 381.958C118.767 381.768 119.185 381.49 119.537 381.139C119.889 380.789 120.168 380.372 120.358 379.913C120.549 379.454 120.647 378.962 120.647 378.465V330.585C120.647 330.088 120.549 329.597 120.358 329.139C120.168 328.68 119.888 328.264 119.536 327.914C119.184 327.564 118.767 327.287 118.307 327.099C117.848 326.911 117.356 326.815 116.859 326.818L66.8937 326.861Z" fill="#E0E0E0"/>
<path d="M112.209 340.853C111.281 340.855 110.374 340.581 109.601 340.068C108.828 339.554 108.225 338.822 107.868 337.966C107.511 337.109 107.416 336.166 107.595 335.255C107.774 334.345 108.219 333.508 108.873 332.85C109.528 332.192 110.363 331.743 111.273 331.56C112.183 331.377 113.126 331.468 113.985 331.821C114.843 332.174 115.577 332.774 116.094 333.545C116.612 334.315 116.889 335.222 116.891 336.15C116.894 336.766 116.775 337.377 116.541 337.948C116.307 338.518 115.962 339.037 115.527 339.474C115.092 339.911 114.575 340.257 114.006 340.494C113.437 340.731 112.826 340.853 112.209 340.853Z" fill="#FAFAFA"/>
<path d="M133.255 340.852C132.327 340.859 131.418 340.59 130.643 340.079C129.868 339.569 129.262 338.84 128.901 337.985C128.54 337.13 128.44 336.188 128.615 335.276C128.79 334.365 129.231 333.526 129.883 332.865C130.535 332.204 131.368 331.752 132.277 331.565C133.186 331.377 134.13 331.464 134.99 331.813C135.849 332.162 136.586 332.759 137.107 333.527C137.628 334.295 137.909 335.2 137.916 336.128V336.224C137.902 337.453 137.405 338.627 136.533 339.493C135.661 340.358 134.484 340.847 133.255 340.852Z" fill="#FAFAFA"/>
<path d="M63.6059 407.448H58.9456V394.169H68.5003L63.6059 407.448Z" fill="#F0F0F0"/>
<path d="M284.386 86.7373H238.677V132.447H284.386V86.7373Z" fill="#EBEBEB"/>
<path d="M286.418 86.7479H284.396V132.457H286.418V86.7479Z" fill="#E0E0E0"/>
<path d="M278.204 92.9404H244.879V126.265H278.204V92.9404Z" fill="white"/>
<path d="M267.117 115.167C266.385 115.901 265.515 116.483 264.557 116.881C263.6 117.278 262.573 117.482 261.537 117.482C260.5 117.482 259.473 117.278 258.516 116.881C257.558 116.483 256.688 115.901 255.956 115.167C254.48 113.687 253.651 111.682 253.651 109.592C253.651 107.502 254.48 105.497 255.956 104.017C257.438 102.54 259.444 101.71 261.537 101.71C263.629 101.71 265.635 102.54 267.117 104.017C268.593 105.497 269.422 107.502 269.422 109.592C269.422 111.682 268.593 113.687 267.117 115.167Z" fill="#F5F5F5"/>
<path d="M239.613 145.513H186.019V199.106H239.613V145.513Z" fill="#EBEBEB"/>
<path d="M241.986 145.523H239.613V199.117H241.986V145.523Z" fill="#E0E0E0"/>
<path d="M232.356 152.78H193.286V191.85H232.356V152.78Z" fill="white"/>
<path d="M221.142 163.973H204.479V180.635H221.142V163.973Z" fill="#F5F5F5"/>
<path d="M479.332 128.276H450.317V135.054H479.332V128.276Z" fill="#E6E6E6"/>
<path d="M450.317 128.276H330.212V135.054H450.317V128.276Z" fill="#F5F5F5"/>
<path d="M398.457 92.2914H364.643V128.287H398.457V92.2914Z" fill="#E0E0E0"/>
<path d="M364.643 92.2914H355.982V128.287H364.643V92.2914Z" fill="#F0F0F0"/>
<path d="M407.321 86.7373H381.923V128.276H407.321V86.7373Z" fill="#E6E6E6"/>
<path d="M381.933 86.7373H374.592V128.276H381.933V86.7373Z" fill="#F0F0F0"/>
<path d="M410.832 92.2914H389.413V128.287H410.832V92.2914Z" fill="#F0F0F0"/>
<path d="M389.413 92.2914H384.519V128.287H389.413V92.2914Z" fill="#FAFAFA"/>
<path d="M435.027 98.3774H406.938V128.276H435.027V98.3774Z" fill="#E6E6E6"/>
<path d="M406.937 98.3774H399.745V128.276H406.937V98.3774Z" fill="#FAFAFA"/>
<path d="M442.39 93.7703H421.291V128.286H442.39V93.7703Z" fill="#E6E6E6"/>
<path d="M421.291 93.7703H415.194V128.286H421.291V93.7703Z" fill="#F0F0F0"/>
<path d="M447.997 98.3774H427.505V128.276H447.997V98.3774Z" fill="#F0F0F0"/>
<path d="M427.504 98.3774H423.44V128.276H427.504V98.3774Z" fill="#FAFAFA"/>
<path d="M433.144 329.223C442.23 317.349 463.861 312.933 471.341 305.442C481.13 295.622 481.087 280.885 472.746 275.565C465.511 270.948 441.507 302.165 438.815 305.677C429.505 317.689 426.813 326.595 425.068 335.224C425.27 327.893 425.462 321.147 425.621 315.955C426.121 299.005 426.749 293.547 427.047 291.876C428.111 291.047 429.239 290.1 429.92 289.589C435.729 285.258 448.604 280.098 455.041 273.81C464.447 264.617 462.925 253.594 456.328 249.519C449.444 245.263 437.251 255.36 430.792 265.393C424.334 275.427 427.09 285.046 425.281 293.313C424.898 294.951 424.504 301.155 424.142 309.762C422.61 301.28 417.918 293.694 411.012 288.535C402.107 281.428 394.414 272.767 387.072 273.884C379.731 275.001 383.721 286.461 389.488 294.505C394.659 301.665 420.184 308.815 423.94 314.572C423.493 326.276 423.1 341.012 422.823 354.78C420.812 347.673 422.195 347.077 413.949 336.16C409.055 329.691 388.945 321.69 386.562 326.159C384.178 330.627 387.807 339.012 395.393 344.896C401.511 349.641 415.034 349.63 418.237 352.578C418.971 353.259 421.429 355.897 422.77 357.419C422.44 374.209 422.301 389.03 422.461 394.095L423.78 394.148C423.717 392.839 423.866 384.295 424.132 372.985C427.43 366.974 449.668 363.409 456.488 357.195C463.659 350.652 468.809 343.012 465.734 337.894C463.17 333.638 442.986 339.427 434.718 346.492C429.249 351.194 425.908 356.227 424.376 362.973C424.557 355.27 424.781 347.013 424.983 339.193C426.664 337.288 430.42 332.787 433.144 329.223Z" fill="#E6E6E6"/>
<path d="M435.08 407.225H412.034C410.768 407.225 409.683 405.586 409.438 403.309L407.799 388.413H439.304L437.676 403.309C437.41 405.586 436.336 407.225 435.08 407.225Z" fill="#F0F0F0"/>
<path d="M439.964 394.169H407.14C406.352 394.169 405.692 393.105 405.607 391.637L404.937 380.614C404.831 378.922 405.544 377.422 406.469 377.422H440.645C441.56 377.422 442.273 378.901 442.166 380.614L441.496 391.637C441.422 393.084 440.751 394.169 439.964 394.169Z" fill="#F0F0F0"/>
<path d="M266 454.924C379.936 454.924 472.299 449.531 472.299 442.879C472.299 436.227 379.936 430.835 266 430.835C152.064 430.835 59.7012 436.227 59.7012 442.879C59.7012 449.531 152.064 454.924 266 454.924Z" fill="#F5F5F5"/>
<path d="M228.217 165.643C225.866 171.357 212.023 170.963 197.521 164.984C183.019 159.004 173.155 149.524 175.507 143.81C176.06 142.491 177.635 137.543 179.209 136.862C184.615 134.575 194.903 139.714 206.044 144.31C216.418 148.566 228.281 151.343 230.122 156.972C231.228 160.398 228.888 164.016 228.217 165.643Z" fill="#A0A0A0"/>
<path opacity="0.2" d="M230.122 156.972C231.005 161.451 229.058 163.601 228.217 165.644C227.377 167.686 224.919 169.027 221.482 169.495C221.053 169.568 220.619 169.618 220.184 169.644C217.549 169.799 214.904 169.66 212.3 169.229C211.928 169.229 211.555 169.112 211.172 169.048C208.115 168.5 205.102 167.724 202.16 166.729L201.096 166.367C199.915 165.952 198.702 165.495 197.489 164.995C196.276 164.494 195.127 163.931 193.988 163.43L193.01 162.962C190.327 161.636 187.743 160.121 185.274 158.43L184.402 157.813C182.247 156.29 180.273 154.526 178.518 152.556C178.252 152.258 178.007 151.971 177.773 151.673C175.486 148.779 174.581 146.013 175.486 143.81C176.081 142.395 177.358 137.554 179.188 136.852C181.439 136.218 183.821 136.218 186.072 136.852L187.136 137.107C192.456 138.469 199.16 141.501 206.001 144.321C214.066 147.651 223.61 151.109 228.292 155.099C228.57 155.334 228.837 155.582 229.09 155.844C229.463 156.192 229.809 156.569 230.122 156.972Z" fill="black"/>
<g opacity="0.2">
<path d="M187.668 136.192L187.179 137.086L178.539 152.546C178.273 152.248 178.029 151.96 177.794 151.663L186.094 136.83L186.743 135.681L187.668 136.192Z" fill="black"/>
</g>
<g opacity="0.2">
<path d="M194.201 142.502L185.296 158.462L184.423 157.844L193.276 142.012L194.201 142.502Z" fill="black"/>
</g>
<g opacity="0.2">
<path d="M210.576 151.652L202.16 166.729L201.096 166.367L209.608 151.088L210.576 151.652Z" fill="black"/>
</g>
<g opacity="0.2">
<path d="M202.958 147.396L194.01 163.43L193.031 162.962L202.032 146.832L202.958 147.396Z" fill="black"/>
</g>
<g opacity="0.2">
<path d="M220.503 154.567L212.3 169.229C211.928 169.229 211.555 169.112 211.172 169.048L219.567 154.035L220.503 154.567Z" fill="black"/>
</g>
<path d="M230.058 160.664C227.707 166.378 214.034 166.154 199.521 160.164C185.008 154.174 175.156 144.704 177.518 138.99C179.88 133.277 193.542 133.511 208.055 139.49C222.567 145.47 232.409 154.918 230.058 160.664Z" fill="#A0A0A0"/>
<path opacity="0.2" d="M225.121 158.589C223.461 162.622 212.8 162.058 201.319 157.323C189.839 152.588 181.88 145.47 183.54 141.438C185.2 137.405 195.861 137.969 207.352 142.704C218.843 147.438 226.792 154.557 225.121 158.589Z" fill="white"/>
<path d="M301.548 113.997C305.336 118.881 298.122 130.702 285.705 140.31C273.289 149.918 260.17 153.748 256.392 148.822C255.52 147.694 251.987 143.917 252.2 142.15C252.913 136.33 262.478 129.968 272.012 122.583C280.886 115.71 289.174 106.794 294.973 107.996C298.495 108.773 300.474 112.614 301.548 113.997Z" fill="#A0A0A0"/>
<path opacity="0.2" d="M294.973 108.038C299.303 109.507 300.197 112.294 301.548 113.997C302.899 115.699 302.846 118.54 301.548 121.764C301.399 122.158 301.218 122.551 301.027 122.956C299.861 125.321 298.433 127.548 296.771 129.595C296.547 129.893 296.303 130.18 296.058 130.478C294.057 132.865 291.88 135.098 289.546 137.16L288.727 137.873C287.78 138.692 286.78 139.512 285.748 140.31C284.716 141.108 283.684 141.863 282.641 142.576C282.354 142.789 282.045 142.991 281.758 143.193C279.272 144.861 276.669 146.347 273.969 147.641C273.639 147.811 273.32 147.949 273.012 148.098C270.613 149.208 268.097 150.043 265.51 150.588C265.127 150.673 264.755 150.737 264.383 150.79C260.733 151.333 257.882 150.79 256.424 148.864C255.488 147.651 251.923 144.129 252.232 142.203C252.788 139.927 253.972 137.852 255.647 136.213C255.881 135.947 256.137 135.681 256.403 135.405C260.244 131.425 266.191 127.159 272.043 122.637C278.949 117.317 286.695 110.73 292.472 108.666C292.821 108.538 293.176 108.428 293.536 108.336C294.007 108.202 294.487 108.103 294.973 108.038Z" fill="black"/>
<g opacity="0.2">
<path d="M255.839 134.532L256.371 135.405L265.479 150.588C265.096 150.673 264.723 150.737 264.351 150.79L255.616 136.192L254.935 135.128L255.839 134.532Z" fill="black"/>
</g>
<g opacity="0.2">
<path d="M264.553 132L273.937 147.641C273.608 147.811 273.288 147.949 272.98 148.098L263.638 132.542L264.553 132Z" fill="black"/>
</g>
<g opacity="0.2">
<path d="M280.63 122.36L289.515 137.171L288.695 137.884L279.715 122.903L280.63 122.36Z" fill="black"/>
</g>
<g opacity="0.2">
<path d="M273.161 126.839L282.609 142.576C282.322 142.789 282.013 142.991 281.726 143.193L272.235 127.382L273.161 126.839Z" fill="black"/>
</g>
<g opacity="0.2">
<path d="M288.099 115.178L296.739 129.595C296.516 129.893 296.271 130.18 296.026 130.478L287.184 115.731L288.099 115.178Z" fill="black"/>
</g>
<path d="M282.484 136.134C294.893 126.523 301.886 114.773 298.104 109.89C294.322 105.008 281.197 108.841 268.789 118.452C256.38 128.064 249.387 139.813 253.169 144.696C256.95 149.579 270.076 145.745 282.484 136.134Z" fill="#A0A0A0"/>
<path opacity="0.2" d="M280.945 133.173C290.766 125.566 296.56 116.601 293.887 113.149C291.213 109.697 281.084 113.066 271.263 120.673C261.442 128.28 255.648 137.245 258.322 140.696C260.995 144.148 271.124 140.78 280.945 133.173Z" fill="white"/>
<path d="M250.189 91.1208C248.976 98.1219 233.271 101.08 215.481 97.8878C197.691 94.6958 184.274 86.4711 185.519 79.47C185.806 77.8421 186.306 71.9156 187.977 70.7346C193.499 66.8403 206.331 70.0962 219.993 72.5221C232.761 74.7884 246.731 74.9693 250.189 80.8532C252.285 84.4708 250.54 89.1205 250.189 91.1208Z" fill="#A0A0A0"/>
<path opacity="0.2" d="M250.189 80.864C252.317 85.6945 250.625 88.578 250.189 91.089C249.753 93.6001 247.316 95.6961 243.571 97.0793C243.113 97.2602 242.635 97.4092 242.145 97.5581C239.216 98.3815 236.204 98.8775 233.165 99.0371C232.729 99.0371 232.303 99.0371 231.856 99.1116C228.276 99.2432 224.692 99.1116 221.131 98.7179L219.886 98.5583C218.45 98.3774 216.971 98.1646 215.492 97.8986C214.013 97.6326 212.577 97.3347 211.161 97.0049C210.757 96.9197 210.353 96.8133 209.949 96.7176C206.606 95.8921 203.327 94.8253 200.138 93.5256C199.745 93.3766 199.372 93.2064 199 93.0574C196.201 91.8662 193.546 90.3636 191.084 88.578C190.711 88.312 190.371 88.046 190.02 87.7693C186.721 85.0774 185.03 82.1833 185.508 79.4914C185.828 77.7465 186.083 72.0434 187.956 70.756C189.828 69.4685 192.51 69.0642 195.702 69.0536H196.978C203.362 69.2664 211.587 71.0433 219.982 72.5329C229.877 74.2991 241.464 75.8419 247.699 79.1829C248.065 79.3767 248.42 79.5898 248.763 79.8213C249.265 80.1312 249.742 80.4798 250.189 80.864Z" fill="black"/>
<g opacity="0.2">
<path d="M197.33 67.9682L196.989 69.0854L191.073 88.5991C190.701 88.3331 190.36 88.0671 190.009 87.7905L195.691 69.0747L196.138 67.6171L197.33 67.9682Z" fill="black"/>
</g>
<g opacity="0.2">
<path d="M206.224 73.4159L200.128 93.5148C199.734 93.3659 199.362 93.1956 198.989 93.0467L205.054 73.0435L206.224 73.4159Z" fill="black"/>
</g>
<g opacity="0.2">
<path d="M226.898 79.7148L221.12 98.7497L219.875 98.5901L225.717 79.353L226.898 79.7148Z" fill="black"/>
</g>
<g opacity="0.2">
<path d="M217.29 76.7994L211.151 97.0154C210.747 96.9303 210.342 96.8239 209.938 96.7281L216.109 76.4164L217.29 76.7994Z" fill="black"/>
</g>
<g opacity="0.2">
<path d="M238.783 80.5448L233.154 99.0691C232.718 99.0691 232.292 99.0691 231.845 99.1436L237.602 80.1937L238.783 80.5448Z" fill="black"/>
</g>
<path d="M251.018 85.0082C252.263 78.0078 238.847 69.7658 221.051 66.599C203.255 63.4323 187.818 66.54 186.573 73.5404C185.327 80.5408 198.744 88.7828 216.54 91.9496C234.336 95.1163 249.772 92.0086 251.018 85.0082Z" fill="#A0A0A0"/>
<path opacity="0.2" d="M244.961 83.9381C245.841 78.9916 235.14 72.9503 221.058 70.4445C206.976 67.9387 194.847 69.9173 193.967 74.8638C193.087 79.8103 203.789 85.8517 217.87 88.3575C231.952 90.8633 244.081 88.8847 244.961 83.9381Z" fill="white"/>
<path d="M343.076 269.862L233.58 276.246C229.712 276.474 225.917 277.397 222.376 278.97L103.442 332.17C101.355 333.088 99.6463 334.693 98.6007 336.719C97.555 338.744 97.2358 341.067 97.6964 343.3L117.349 436.24C117.681 437.737 118.351 439.137 119.307 440.335C120.264 441.533 121.482 442.497 122.868 443.152C124.254 443.807 125.772 444.136 127.305 444.115C128.838 444.093 130.345 443.722 131.713 443.028L249.104 384.423L357.504 380.795C358.838 380.759 360.149 380.44 361.35 379.858C362.551 379.276 363.614 378.445 364.468 377.421C365.323 376.396 365.95 375.201 366.306 373.915C366.663 372.629 366.742 371.282 366.537 369.963L352.035 280.971C351.28 276.374 347.79 269.724 343.076 269.862Z" fill="#A0A0A0"/>
<path opacity="0.1" d="M343.076 269.862L233.58 276.246C229.712 276.474 225.917 277.397 222.376 278.97L103.442 332.17C101.355 333.088 99.6463 334.693 98.6007 336.719C97.555 338.744 97.2358 341.067 97.6964 343.3L117.349 436.24C117.681 437.737 118.351 439.137 119.307 440.335C120.264 441.533 121.482 442.497 122.868 443.152C124.254 443.807 125.772 444.136 127.305 444.115C128.838 444.093 130.345 443.722 131.713 443.028L249.104 384.423L357.504 380.795C358.838 380.759 360.149 380.44 361.35 379.858C362.551 379.276 363.614 378.445 364.468 377.421C365.323 376.396 365.95 375.201 366.306 373.915C366.663 372.629 366.742 371.282 366.537 369.963L352.035 280.971C351.28 276.374 347.79 269.724 343.076 269.862Z" fill="black"/>
<path d="M123.295 209.347L65.8335 262.315L168.951 374.18L226.413 321.212L123.295 209.347Z" fill="#A0A0A0"/>
<path opacity="0.5" d="M226.398 321.222L168.931 374.188L65.8298 262.329L103.538 227.568L123.296 209.353L126.584 212.928L226.398 321.222Z" fill="#FAFAFA"/>
<path d="M123.664 216.185L72.9617 262.923L169.416 367.56L220.118 320.822L123.664 216.185Z" stroke="#A0A0A0" stroke-width="1.064" stroke-miterlimit="10"/>
<path d="M157.949 304.261C163.764 298.9 163.029 288.642 156.306 281.348C149.583 274.055 139.418 272.488 133.603 277.849C127.787 283.21 128.523 293.468 135.246 300.762C141.969 308.055 152.133 309.622 157.949 304.261Z" fill="#A0A0A0"/>
<path opacity="0.1" d="M168.325 328.787L147.907 335.841L103.538 227.568L123.296 209.353L126.584 212.928L168.325 328.787Z" fill="black"/>
<path d="M172.303 165.521L98.8328 192.161L150.693 335.19L224.164 308.551L172.303 165.521Z" fill="#A0A0A0"/>
<path opacity="0.5" d="M172.303 165.521L98.8328 192.161L150.693 335.19L224.164 308.551L172.303 165.521Z" fill="#FAFAFA"/>
<path d="M169.994 171.971L105.166 195.477L153.675 329.264L218.503 305.758L169.994 171.971Z" stroke="#A0A0A0" stroke-width="1.064" stroke-miterlimit="10"/>
<path d="M167.581 266.444C175.017 263.748 178.304 254.003 174.923 244.678C171.541 235.352 162.773 229.978 155.337 232.675C147.901 235.371 144.614 245.116 147.995 254.441C151.376 263.766 160.145 269.14 167.581 266.444Z" fill="#A0A0A0"/>
<path d="M343.789 273.64L235.793 279.726C231.965 279.935 228.209 280.855 224.717 282.439L107.528 335.341C105.464 336.274 103.78 337.883 102.754 339.903C101.729 341.923 101.424 344.232 101.889 346.449L121.541 439.432C121.857 440.919 122.511 442.314 123.451 443.51C124.39 444.705 125.592 445.67 126.963 446.328C128.333 446.987 129.837 447.322 131.357 447.309C132.878 447.296 134.375 446.934 135.735 446.252L251.391 387.977L358.302 384.593C359.626 384.552 360.925 384.228 362.113 383.644C363.302 383.06 364.352 382.229 365.194 381.207C366.036 380.185 366.65 378.995 366.996 377.717C367.341 376.438 367.41 375.101 367.197 373.794L352.652 284.812C351.897 280.172 348.449 273.512 343.789 273.64Z" fill="#A0A0A0"/>
<path opacity="0.2" d="M240.188 296.005L332.851 290.302" stroke="black" stroke-width="2.128" stroke-linecap="round" stroke-linejoin="round"/>
<path opacity="0.2" d="M229.09 298.399L246.018 376.156" stroke="black" stroke-width="2.128" stroke-linecap="round" stroke-linejoin="round"/>
<path opacity="0.2" d="M116.221 368.602L128.159 428.409C128.159 428.409 137.309 404.682 116.221 368.602Z" fill="#FAFAFA"/>
<path opacity="0.2" d="M117.785 369.304C118.2 370.368 223.823 325.041 223.823 325.041C224.109 335.318 221.54 345.472 216.401 354.376C211.262 363.279 203.754 370.583 194.712 375.475C162.92 393.297 117.785 369.304 117.785 369.304Z" fill="#FAFAFA"/>
<path d="M187.945 371.07C190.472 371.07 192.52 369.022 192.52 366.495C192.52 363.968 190.472 361.92 187.945 361.92C185.418 361.92 183.37 363.968 183.37 366.495C183.37 369.022 185.418 371.07 187.945 371.07Z" fill="#A0A0A0"/>
<path opacity="0.2" d="M223.876 325.041C223.876 325.041 236.974 344.757 233.804 378.337L223.876 325.041Z" fill="black"/>
<g opacity="0.2">
<path d="M111.167 345.108L113.604 344.034" stroke="#FAFAFA" stroke-width="1.064" stroke-linecap="round" stroke-linejoin="round"/>
<path d="M118.657 341.799L217.29 298.197" stroke="#FAFAFA" stroke-width="1.064" stroke-linecap="round" stroke-linejoin="round" stroke-dasharray="5.53 5.53"/>
<path d="M219.823 297.08L222.249 296.005" stroke="#FAFAFA" stroke-width="1.064" stroke-linecap="round" stroke-linejoin="round"/>
</g>
<path opacity="0.2" d="M243.294 313.486L335.958 307.773" stroke="black" stroke-width="2.128" stroke-linecap="round" stroke-linejoin="round"/>
<path opacity="0.2" d="M247.465 335.288L340.129 329.574" stroke="black" stroke-width="2.128" stroke-linecap="round" stroke-linejoin="round"/>
<path d="M319.817 180.412C319.817 180.412 317.487 205.235 308.262 207.374C302.549 208.608 296.593 208.012 291.238 205.671L283.737 199.904L280.077 212.672C280.077 212.672 284.077 218.109 292.43 214.343C292.43 214.343 307.326 220.897 315.561 214.343C323.796 207.789 326.435 189.807 326.435 189.807L319.817 180.412Z" fill="#B97964"/>
<path d="M327.233 168.389C327.233 168.389 320.796 157.419 323.722 137.533C326.648 117.647 343.321 115.189 349.758 116.625C356.195 118.062 361.462 124.243 365.846 136.011C370.229 147.779 371.847 150.843 379.156 148.779C386.466 146.715 405.916 140.267 411.332 146.002C412.889 147.569 414.037 149.495 414.674 151.61C415.31 153.726 415.416 155.966 414.981 158.132C414.981 158.132 442.039 151.556 439.698 175.688C437.357 199.819 398.308 222.344 361.164 198.5C324.02 174.656 327.233 168.389 327.233 168.389Z" fill="#263238"/>
<path d="M326.935 226.792C326.935 226.792 319.583 290.025 319.828 319.679C320.072 349.333 330.606 419.216 330.606 419.216H343.598C343.598 419.216 341.884 363.335 342.129 344.215C342.374 325.095 345.8 293.462 345.8 293.462C345.8 293.462 349.96 321.892 354.865 331.936C359.77 341.98 386.977 377.529 405.852 388.562L414.673 380.465C414.673 380.465 395.063 356.206 387.711 344.193C380.359 332.181 373.751 328.776 371.049 306.432C368.346 284.088 373.017 248.348 365.175 226.781L326.935 226.792Z" fill="#263238"/>
<path opacity="0.2" d="M345.8 293.462L340.15 253.381C340.15 253.381 335.692 277.47 344.47 306.89L345.8 293.462Z" fill="black"/>
<path d="M333.277 422.759L333.713 435.176L342.427 435.9L342.863 434.74V421.887L333.277 422.759Z" fill="#B97964"/>
<path d="M329.138 418.035L329.936 422.685L344.896 423.046L345.843 417.46L329.138 418.035Z" fill="#A0A0A0"/>
<path d="M401.756 389.424L415.62 376.507L418.673 381.37L406.767 392.265L401.756 389.424Z" fill="#A0A0A0"/>
<path d="M408.438 389.424L417.588 397.127L423.461 390.222L415.949 382.455L408.438 389.424Z" fill="#B97964"/>
<path d="M425.238 389.69L430.771 393.095C431.023 393.25 431.238 393.459 431.401 393.706C431.564 393.953 431.671 394.233 431.715 394.526C431.758 394.819 431.737 395.118 431.653 395.402C431.569 395.686 431.424 395.948 431.228 396.17C427.217 400.702 416.971 412.215 415.949 413.023C414.683 414.087 413.151 412.3 412.757 410.704C412.757 410.704 415.662 406.852 415.949 404.384C416.07 402.478 416.07 400.566 415.949 398.659C415.927 398.182 416.087 397.715 416.396 397.351L422.578 390.094C422.897 389.716 423.343 389.467 423.832 389.392C424.321 389.318 424.821 389.424 425.238 389.69Z" fill="#263238"/>
<path d="M344.555 436.24L345.704 442.624C345.757 442.916 345.745 443.216 345.67 443.503C345.594 443.79 345.457 444.057 345.267 444.285C345.078 444.513 344.84 444.697 344.572 444.823C344.304 444.95 344.011 445.017 343.714 445.018C337.66 445.018 322.254 445.082 320.966 444.869C319.359 444.603 319.647 442.305 320.594 440.964C320.594 440.964 325.392 440.56 327.403 439.102C328.899 437.929 330.32 436.664 331.659 435.314C332.002 434.979 332.457 434.786 332.936 434.772L342.459 434.548C342.953 434.53 343.438 434.692 343.823 435.002C344.208 435.313 344.468 435.753 344.555 436.24Z" fill="#263238"/>
<path d="M366.569 191.722L379.848 182.402C379.848 182.402 376.315 168.272 371.08 167.569C365.846 166.867 339.863 161.92 323.339 167.569C323.339 167.569 317.402 169.261 315.572 185.934L322.637 188.19C322.637 188.19 325.169 219.407 326.733 224.217H364.441C364.441 224.217 364.867 197.372 366.569 191.722Z" fill="#A0A0A0"/>
<path d="M369.431 189.711C369.431 189.711 374.464 204.075 375.358 211.8C375.358 211.8 363.399 207.033 360.313 204.852L357.972 196.446L350.056 192.584L347.705 198.968L354.312 207.161C354.312 207.161 372.326 224.015 381.455 220.163C390.584 216.311 377.848 183.838 377.848 183.838L369.431 189.711Z" fill="#B97964"/>
<path d="M335.649 126.818C335.649 126.818 331.042 136.011 331.393 143.491C331.744 150.971 335.522 154.025 342.704 155.078C342.704 155.078 345.768 164.654 337.724 165.622C337.107 165.697 336.894 168.133 336.937 168.527C337.15 170.08 338.692 170.932 340.129 171.293C341.642 171.628 343.186 171.8 344.736 171.804C346.363 171.86 347.982 171.545 349.469 170.884C350.957 170.222 352.275 169.23 353.322 167.984C353.493 167.782 355.11 165.718 355.11 165.718C355.11 165.718 351.269 163.813 352.62 151.343C354.453 150.15 355.861 148.407 356.642 146.364C357.376 145.974 358.025 145.442 358.551 144.799C359.077 144.156 359.47 143.415 359.706 142.619C360.281 140.129 358.079 136.681 354.057 140.129C354.057 140.129 346.481 136.298 343.608 122.881C341.478 125.057 338.672 126.446 335.649 126.818Z" fill="#B97964"/>
<path d="M337.809 141.448L338.459 136.533L334.979 140.384C335.338 140.766 335.78 141.061 336.271 141.245C336.761 141.43 337.288 141.499 337.809 141.448Z" fill="#A24E3F"/>
<path d="M339.831 145.044C339.831 145.044 343.502 145.608 345.268 143.257" stroke="#222221" stroke-width="0.798" stroke-linecap="round" stroke-linejoin="round"/>
<path d="M343.502 129.648C344.335 129.411 345.217 129.404 346.054 129.627C346.891 129.85 347.653 130.295 348.258 130.915" stroke="#222221" stroke-width="1.064" stroke-linecap="round" stroke-linejoin="round"/>
<path d="M337.15 128.584C337.15 128.584 335.022 128.255 334.075 129.457" stroke="#222221" stroke-width="1.064" stroke-linecap="round" stroke-linejoin="round"/>
<path d="M344.981 136.118C344.885 136.862 344.406 137.405 343.917 137.341C343.427 137.277 343.097 136.628 343.193 135.883C343.289 135.139 343.768 134.596 344.257 134.66C344.747 134.724 345.076 135.373 344.981 136.118Z" fill="#222221"/>
<path d="M336.487 134.471C336.583 133.731 336.259 133.079 335.764 133.014C335.269 132.95 334.789 133.498 334.693 134.238C334.597 134.978 334.921 135.63 335.416 135.694C335.911 135.759 336.391 135.211 336.487 134.471Z" fill="#222221"/>
<path d="M344.268 134.66L342.587 133.926C342.609 134.11 342.679 134.285 342.789 134.433C342.9 134.582 343.047 134.699 343.217 134.774C343.387 134.848 343.573 134.876 343.758 134.856C343.942 134.836 344.118 134.769 344.268 134.66Z" fill="#222221"/>
<path d="M335.926 133.085L334.245 132.351C334.267 132.535 334.337 132.71 334.447 132.859C334.558 133.007 334.706 133.125 334.875 133.199C335.045 133.273 335.232 133.302 335.416 133.282C335.6 133.262 335.776 133.194 335.926 133.085Z" fill="#222221"/>
<path d="M325.414 222.557V226.994L366.271 227.334L365.175 222.057L325.414 222.557Z" fill="#A0A0A0"/>
<path opacity="0.4" d="M325.414 222.557V226.994L366.271 227.334L365.175 222.057L325.414 222.557Z" fill="white"/>
<path d="M325.914 201.022L303.442 279.183C302.695 281.801 301.181 284.134 299.094 285.883C297.008 287.631 294.446 288.715 291.738 288.993C290.014 289.158 288.275 288.999 286.61 288.525L243.656 276.172C240.184 275.17 237.25 272.832 235.499 269.671C233.748 266.509 233.322 262.783 234.314 259.307L256.796 181.125C257.8 177.657 260.138 174.729 263.297 172.982C266.456 171.235 270.179 170.811 273.65 171.804L316.636 184.147C320.1 185.159 323.022 187.504 324.761 190.667C326.5 193.83 326.915 197.554 325.914 201.022Z" fill="#A0A0A0"/>
<path opacity="0.2" d="M325.914 201.022L303.442 279.183C302.695 281.801 301.181 284.134 299.094 285.883C297.008 287.631 294.446 288.715 291.738 288.993C290.014 289.158 288.275 288.999 286.61 288.525L243.656 276.172C240.184 275.17 237.25 272.832 235.499 269.671C233.748 266.509 233.322 262.783 234.314 259.307L256.796 181.125C257.8 177.657 260.138 174.729 263.297 172.982C266.456 171.235 270.179 170.811 273.65 171.804L316.636 184.147C320.1 185.159 323.022 187.504 324.761 190.667C326.5 193.83 326.915 197.554 325.914 201.022Z" fill="black"/>
<path d="M322.179 201.947L299.707 280.119C299.139 282.109 298.124 283.943 296.739 285.481C295.354 287.019 293.637 288.22 291.717 288.993C289.993 289.158 288.254 288.999 286.588 288.525L243.656 276.172C240.184 275.17 237.25 272.832 235.499 269.671C233.748 266.509 233.322 262.783 234.314 259.307L256.796 181.125C257.365 179.138 258.381 177.307 259.766 175.773C261.151 174.238 262.868 173.041 264.787 172.272C266.511 172.097 268.252 172.256 269.915 172.74L312.816 185.136C316.282 186.131 319.212 188.459 320.967 191.609C322.722 194.76 323.157 198.476 322.179 201.947Z" fill="#A0A0A0"/>
<path opacity="0.5" d="M322.179 201.947L299.707 280.119C299.139 282.109 298.124 283.943 296.739 285.481C295.354 287.019 293.637 288.22 291.717 288.993C289.993 289.158 288.254 288.999 286.588 288.525L243.656 276.172C240.184 275.17 237.25 272.832 235.499 269.671C233.748 266.509 233.322 262.783 234.314 259.307L256.796 181.125C257.365 179.138 258.381 177.307 259.766 175.773C261.151 174.238 262.868 173.041 264.787 172.272C266.511 172.097 268.252 172.256 269.915 172.74L312.816 185.136C316.282 186.131 319.212 188.459 320.967 191.609C322.722 194.76 323.157 198.476 322.179 201.947Z" fill="#FAFAFA"/>
<path d="M261.766 208.595L257.168 207.299L240.618 266.021L245.216 267.317L261.766 208.595Z" fill="#FAFAFA"/>
<path d="M251.817 269.181L247.22 267.851L263.766 209.15L268.351 210.47L251.817 269.181Z" fill="#FAFAFA"/>
<path d="M258.499 271.097L253.902 269.777L270.447 211.076L275.044 212.396L258.499 271.097Z" fill="#FAFAFA"/>
<path opacity="0.5" d="M301.801 220.088L297.203 218.792L280.653 277.515L285.251 278.81L301.801 220.088Z" fill="black"/>
<path d="M301.218 203.49L298.984 211.459L296.26 210.693C294.941 210.319 293.823 209.437 293.153 208.24C292.483 207.043 292.315 205.63 292.685 204.309L294.175 198.989L299.676 200.564C300.268 200.748 300.763 201.159 301.052 201.708C301.342 202.256 301.401 202.897 301.218 203.49Z" fill="#FAFAFA"/>
<path d="M299.91 199.585L294.409 198.01L296.058 192.18C296.242 191.526 296.553 190.914 296.974 190.38C297.394 189.847 297.916 189.401 298.509 189.069C299.102 188.737 299.754 188.525 300.429 188.445C301.104 188.366 301.788 188.42 302.442 188.605L305.272 189.403L302.804 197.989C302.722 198.286 302.581 198.563 302.391 198.805C302.2 199.047 301.963 199.248 301.693 199.397C301.423 199.546 301.126 199.639 300.82 199.671C300.514 199.703 300.204 199.674 299.91 199.585Z" fill="#FAFAFA"/>
<path d="M305.123 202.16L310.656 203.745L309.188 208.948C309.006 209.604 308.696 210.217 308.276 210.752C307.856 211.288 307.335 211.734 306.741 212.067C306.147 212.399 305.494 212.611 304.818 212.689C304.142 212.767 303.458 212.711 302.804 212.523L299.931 211.715L302.219 203.756C302.303 203.459 302.445 203.183 302.637 202.942C302.829 202.7 303.067 202.5 303.338 202.351C303.608 202.203 303.905 202.11 304.211 202.077C304.518 202.044 304.828 202.072 305.123 202.16Z" fill="#FAFAFA"/>
<path d="M312.614 196.84L310.943 202.756L305.411 201.17C304.818 200.997 304.318 200.597 304.019 200.057C303.72 199.517 303.647 198.881 303.815 198.287L306.283 189.701L309.039 190.477C309.691 190.66 310.301 190.97 310.834 191.389C311.367 191.808 311.812 192.327 312.144 192.918C312.476 193.509 312.688 194.159 312.769 194.832C312.85 195.505 312.797 196.187 312.614 196.84Z" fill="#FAFAFA"/>
</g>
<defs>
<clipPath id="clip0_487_80">
<rect width="532" height="532" fill="white"/>
</clipPath>
</defs>
</svg>
